<mxfile host="app.diagrams.net" agent="Mozilla/5.0 (Windows NT 10.0; Win64; x64) AppleWebKit/537.36 (KHTML, like Gecko) Chrome/132.0.0.0 Safari/537.36 OPR/117.0.0.0" version="26.2.2">
  <diagram name="Страница — 1" id="u1uKne-qDeMZfQAYgLeE">
    <mxGraphModel dx="2459" dy="2069" grid="1" gridSize="10" guides="1" tooltips="1" connect="1" arrows="1" fold="1" page="1" pageScale="1" pageWidth="827" pageHeight="1169" math="0" shadow="0">
      <root>
        <mxCell id="0" />
        <mxCell id="1" parent="0" />
        <mxCell id="-R2iYD6G5VZ62MOR1Gz--1" value="" style="rounded=0;whiteSpace=wrap;html=1;" parent="1" vertex="1">
          <mxGeometry x="50" y="-777.33" width="2210" height="270.63" as="geometry" />
        </mxCell>
        <mxCell id="-R2iYD6G5VZ62MOR1Gz--7" value="Клиент" style="rounded=0;whiteSpace=wrap;html=1;rotation=-90;" parent="1" vertex="1">
          <mxGeometry x="-100.31" y="-657.18" width="270.63" height="30" as="geometry" />
        </mxCell>
        <mxCell id="-R2iYD6G5VZ62MOR1Gz--15" style="edgeStyle=orthogonalEdgeStyle;rounded=0;orthogonalLoop=1;jettySize=auto;html=1;exitX=1;exitY=0.5;exitDx=0;exitDy=0;" parent="1" source="-R2iYD6G5VZ62MOR1Gz--8" target="-R2iYD6G5VZ62MOR1Gz--16" edge="1">
          <mxGeometry relative="1" as="geometry">
            <mxPoint x="140" y="-672" as="targetPoint" />
          </mxGeometry>
        </mxCell>
        <mxCell id="-R2iYD6G5VZ62MOR1Gz--8" value="" style="ellipse;whiteSpace=wrap;html=1;aspect=fixed;" parent="1" vertex="1">
          <mxGeometry x="80" y="-690" width="35" height="35" as="geometry" />
        </mxCell>
        <mxCell id="-R2iYD6G5VZ62MOR1Gz--9" value="Переход в приложение" style="text;html=1;align=center;verticalAlign=middle;whiteSpace=wrap;rounded=0;" parent="1" vertex="1">
          <mxGeometry x="67.5" y="-647.5" width="60" height="30" as="geometry" />
        </mxCell>
        <mxCell id="-R2iYD6G5VZ62MOR1Gz--18" value="" style="edgeStyle=orthogonalEdgeStyle;rounded=0;orthogonalLoop=1;jettySize=auto;html=1;" parent="1" source="-R2iYD6G5VZ62MOR1Gz--16" target="-R2iYD6G5VZ62MOR1Gz--17" edge="1">
          <mxGeometry relative="1" as="geometry" />
        </mxCell>
        <mxCell id="-R2iYD6G5VZ62MOR1Gz--16" value="Ознакомление с листом квестов" style="rounded=1;whiteSpace=wrap;html=1;" parent="1" vertex="1">
          <mxGeometry x="130" y="-702.5" width="120" height="60" as="geometry" />
        </mxCell>
        <mxCell id="-R2iYD6G5VZ62MOR1Gz--20" value="" style="edgeStyle=orthogonalEdgeStyle;rounded=0;orthogonalLoop=1;jettySize=auto;html=1;" parent="1" source="-R2iYD6G5VZ62MOR1Gz--17" edge="1">
          <mxGeometry relative="1" as="geometry">
            <mxPoint x="420.1043478260867" y="-672.4000000000001" as="targetPoint" />
          </mxGeometry>
        </mxCell>
        <mxCell id="-R2iYD6G5VZ62MOR1Gz--17" value="Оформление бронирование квеста" style="rounded=1;whiteSpace=wrap;html=1;" parent="1" vertex="1">
          <mxGeometry x="270" y="-702.5" width="120" height="60" as="geometry" />
        </mxCell>
        <mxCell id="Gj7sBWzn-W7E-TxNVWnS-31" style="edgeStyle=orthogonalEdgeStyle;rounded=0;orthogonalLoop=1;jettySize=auto;html=1;exitX=1;exitY=0.5;exitDx=0;exitDy=0;" edge="1" parent="1" source="-R2iYD6G5VZ62MOR1Gz--22" target="Gj7sBWzn-W7E-TxNVWnS-32">
          <mxGeometry relative="1" as="geometry">
            <mxPoint x="620" y="-421.9411764705883" as="targetPoint" />
          </mxGeometry>
        </mxCell>
        <mxCell id="Gj7sBWzn-W7E-TxNVWnS-38" style="edgeStyle=orthogonalEdgeStyle;rounded=0;orthogonalLoop=1;jettySize=auto;html=1;exitX=0.5;exitY=0;exitDx=0;exitDy=0;" edge="1" parent="1" source="-R2iYD6G5VZ62MOR1Gz--22" target="Gj7sBWzn-W7E-TxNVWnS-35">
          <mxGeometry relative="1" as="geometry" />
        </mxCell>
        <mxCell id="-R2iYD6G5VZ62MOR1Gz--22" value="&lt;font style=&quot;font-size: 32px;&quot;&gt;&lt;b&gt;X&lt;/b&gt;&lt;/font&gt;" style="rhombus;whiteSpace=wrap;html=1;strokeWidth=3;" parent="1" vertex="1">
          <mxGeometry x="520" y="-456.87" width="66" height="68.75" as="geometry" />
        </mxCell>
        <mxCell id="-R2iYD6G5VZ62MOR1Gz--23" value="Забронирован квест на данное время?" style="text;html=1;align=center;verticalAlign=middle;whiteSpace=wrap;rounded=0;" parent="1" vertex="1">
          <mxGeometry x="523" y="-370" width="60" height="30" as="geometry" />
        </mxCell>
        <mxCell id="Gj7sBWzn-W7E-TxNVWnS-1" value="Администратор" style="rounded=0;whiteSpace=wrap;html=1;rotation=-90;" vertex="1" parent="1">
          <mxGeometry x="-100.31" y="-390" width="270.63" height="30" as="geometry" />
        </mxCell>
        <mxCell id="Gj7sBWzn-W7E-TxNVWnS-2" value="" style="rounded=0;whiteSpace=wrap;html=1;" vertex="1" parent="1">
          <mxGeometry x="50" y="-510.16" width="2210" height="270.63" as="geometry" />
        </mxCell>
        <mxCell id="Gj7sBWzn-W7E-TxNVWnS-3" value="Актер" style="rounded=0;whiteSpace=wrap;html=1;rotation=-90;" vertex="1" parent="1">
          <mxGeometry x="-100.31" y="-119.37" width="270.63" height="30" as="geometry" />
        </mxCell>
        <mxCell id="Gj7sBWzn-W7E-TxNVWnS-4" value="" style="rounded=0;whiteSpace=wrap;html=1;" vertex="1" parent="1">
          <mxGeometry x="50" y="-239.53" width="2210" height="270.63" as="geometry" />
        </mxCell>
        <mxCell id="Gj7sBWzn-W7E-TxNVWnS-6" value="Бронирование квеста" style="rounded=0;whiteSpace=wrap;html=1;rotation=-90;" vertex="1" parent="1">
          <mxGeometry x="-409.93" y="-399.2" width="808.91" height="51.6" as="geometry" />
        </mxCell>
        <mxCell id="Gj7sBWzn-W7E-TxNVWnS-17" style="edgeStyle=orthogonalEdgeStyle;rounded=0;orthogonalLoop=1;jettySize=auto;html=1;exitX=1;exitY=0.5;exitDx=0;exitDy=0;entryX=0;entryY=0.5;entryDx=0;entryDy=0;" edge="1" parent="1" target="-R2iYD6G5VZ62MOR1Gz--22">
          <mxGeometry relative="1" as="geometry">
            <mxPoint x="472.4900000000034" y="-425.44500000000016" as="sourcePoint" />
          </mxGeometry>
        </mxCell>
        <mxCell id="Gj7sBWzn-W7E-TxNVWnS-13" value="Время ожидания ответа" style="text;html=1;align=center;verticalAlign=middle;whiteSpace=wrap;rounded=0;" vertex="1" parent="1">
          <mxGeometry x="414" y="-740" width="60" height="30" as="geometry" />
        </mxCell>
        <mxCell id="Gj7sBWzn-W7E-TxNVWnS-16" value="Получение заказа" style="text;html=1;align=center;verticalAlign=middle;whiteSpace=wrap;rounded=0;" vertex="1" parent="1">
          <mxGeometry x="415" y="-390.13" width="60" height="30" as="geometry" />
        </mxCell>
        <mxCell id="Gj7sBWzn-W7E-TxNVWnS-18" value="" style="endArrow=classic;html=1;rounded=0;dashed=1;dashPattern=1 2;exitX=0.5;exitY=1;exitDx=0;exitDy=0;" edge="1" parent="1">
          <mxGeometry width="50" height="50" relative="1" as="geometry">
            <mxPoint x="445" y="-647.5000000000002" as="sourcePoint" />
            <mxPoint x="450" y="-452" as="targetPoint" />
          </mxGeometry>
        </mxCell>
        <mxCell id="Gj7sBWzn-W7E-TxNVWnS-20" value="" style="ellipse;whiteSpace=wrap;html=1;aspect=fixed;strokeWidth=4;" vertex="1" parent="1">
          <mxGeometry x="622" y="-702.5" width="50" height="50" as="geometry" />
        </mxCell>
        <mxCell id="Gj7sBWzn-W7E-TxNVWnS-22" value="Отклонение&amp;nbsp;заказа" style="text;html=1;align=center;verticalAlign=middle;whiteSpace=wrap;rounded=0;" vertex="1" parent="1">
          <mxGeometry x="620" y="-740" width="60" height="30" as="geometry" />
        </mxCell>
        <mxCell id="Gj7sBWzn-W7E-TxNVWnS-24" value="" style="points=[[0.145,0.145,0],[0.5,0,0],[0.855,0.145,0],[1,0.5,0],[0.855,0.855,0],[0.5,1,0],[0.145,0.855,0],[0,0.5,0]];shape=mxgraph.bpmn.event;html=1;verticalLabelPosition=bottom;labelBackgroundColor=#ffffff;verticalAlign=top;align=center;perimeter=ellipsePerimeter;outlineConnect=0;aspect=fixed;outline=boundInt;symbol=message;" vertex="1" parent="1">
          <mxGeometry x="424" y="-449.2" width="50" height="50" as="geometry" />
        </mxCell>
        <mxCell id="Gj7sBWzn-W7E-TxNVWnS-26" value="" style="points=[[0.145,0.145,0],[0.5,0,0],[0.855,0.145,0],[1,0.5,0],[0.855,0.855,0],[0.5,1,0],[0.145,0.855,0],[0,0.5,0]];shape=mxgraph.bpmn.event;html=1;verticalLabelPosition=bottom;labelBackgroundColor=#ffffff;verticalAlign=top;align=center;perimeter=ellipsePerimeter;outlineConnect=0;aspect=fixed;outline=standard;symbol=timer;" vertex="1" parent="1">
          <mxGeometry x="419" y="-697.5" width="50" height="50" as="geometry" />
        </mxCell>
        <mxCell id="Gj7sBWzn-W7E-TxNVWnS-27" value="да" style="text;html=1;align=center;verticalAlign=middle;whiteSpace=wrap;rounded=0;" vertex="1" parent="1">
          <mxGeometry x="510" y="-486.87" width="60" height="30" as="geometry" />
        </mxCell>
        <mxCell id="Gj7sBWzn-W7E-TxNVWnS-29" value="нет" style="text;html=1;align=center;verticalAlign=middle;whiteSpace=wrap;rounded=0;" vertex="1" parent="1">
          <mxGeometry x="578" y="-456.87" width="60" height="30" as="geometry" />
        </mxCell>
        <mxCell id="Gj7sBWzn-W7E-TxNVWnS-45" style="edgeStyle=orthogonalEdgeStyle;rounded=0;orthogonalLoop=1;jettySize=auto;html=1;exitX=1;exitY=0.5;exitDx=0;exitDy=0;entryX=0;entryY=0.5;entryDx=0;entryDy=0;" edge="1" parent="1" source="Gj7sBWzn-W7E-TxNVWnS-32" target="Gj7sBWzn-W7E-TxNVWnS-33">
          <mxGeometry relative="1" as="geometry" />
        </mxCell>
        <mxCell id="Gj7sBWzn-W7E-TxNVWnS-32" value="Обработка информации о квесте и клиенте" style="rounded=1;whiteSpace=wrap;html=1;" vertex="1" parent="1">
          <mxGeometry x="638" y="-452.4911764705883" width="120" height="60" as="geometry" />
        </mxCell>
        <mxCell id="Gj7sBWzn-W7E-TxNVWnS-49" style="edgeStyle=orthogonalEdgeStyle;rounded=0;orthogonalLoop=1;jettySize=auto;html=1;exitX=1;exitY=0.5;exitDx=0;exitDy=0;entryX=0;entryY=0.5;entryDx=0;entryDy=0;" edge="1" parent="1" source="Gj7sBWzn-W7E-TxNVWnS-33" target="Gj7sBWzn-W7E-TxNVWnS-48">
          <mxGeometry relative="1" as="geometry" />
        </mxCell>
        <mxCell id="Gj7sBWzn-W7E-TxNVWnS-33" value="&lt;font style=&quot;font-size: 32px;&quot;&gt;&lt;b&gt;X&lt;/b&gt;&lt;/font&gt;" style="rhombus;whiteSpace=wrap;html=1;strokeWidth=3;" vertex="1" parent="1">
          <mxGeometry x="780" y="-456.87" width="66" height="68.75" as="geometry" />
        </mxCell>
        <mxCell id="Gj7sBWzn-W7E-TxNVWnS-34" value="Достоверная информация" style="text;html=1;align=center;verticalAlign=middle;whiteSpace=wrap;rounded=0;" vertex="1" parent="1">
          <mxGeometry x="783" y="-370" width="60" height="30" as="geometry" />
        </mxCell>
        <mxCell id="Gj7sBWzn-W7E-TxNVWnS-36" style="edgeStyle=orthogonalEdgeStyle;rounded=0;orthogonalLoop=1;jettySize=auto;html=1;exitX=1;exitY=0.5;exitDx=0;exitDy=0;exitPerimeter=0;entryX=0;entryY=0.5;entryDx=0;entryDy=0;" edge="1" parent="1" source="Gj7sBWzn-W7E-TxNVWnS-35" target="Gj7sBWzn-W7E-TxNVWnS-20">
          <mxGeometry relative="1" as="geometry" />
        </mxCell>
        <mxCell id="Gj7sBWzn-W7E-TxNVWnS-35" value="" style="points=[[0.145,0.145,0],[0.5,0,0],[0.855,0.145,0],[1,0.5,0],[0.855,0.855,0],[0.5,1,0],[0.145,0.855,0],[0,0.5,0]];shape=mxgraph.bpmn.event;html=1;verticalLabelPosition=bottom;labelBackgroundColor=#ffffff;verticalAlign=top;align=center;perimeter=ellipsePerimeter;outlineConnect=0;aspect=fixed;outline=throwing;symbol=message;" vertex="1" parent="1">
          <mxGeometry x="528" y="-702.5" width="52" height="52" as="geometry" />
        </mxCell>
        <mxCell id="Gj7sBWzn-W7E-TxNVWnS-37" value="Сообщение об отклонении" style="text;html=1;align=center;verticalAlign=middle;whiteSpace=wrap;rounded=0;" vertex="1" parent="1">
          <mxGeometry x="526" y="-740" width="60" height="30" as="geometry" />
        </mxCell>
        <mxCell id="Gj7sBWzn-W7E-TxNVWnS-39" value="" style="ellipse;whiteSpace=wrap;html=1;aspect=fixed;strokeWidth=4;" vertex="1" parent="1">
          <mxGeometry x="879" y="-702.5" width="50" height="50" as="geometry" />
        </mxCell>
        <mxCell id="Gj7sBWzn-W7E-TxNVWnS-40" value="Отклонение заказа" style="text;html=1;align=center;verticalAlign=middle;whiteSpace=wrap;rounded=0;" vertex="1" parent="1">
          <mxGeometry x="877" y="-740" width="60" height="30" as="geometry" />
        </mxCell>
        <mxCell id="Gj7sBWzn-W7E-TxNVWnS-41" style="edgeStyle=orthogonalEdgeStyle;rounded=0;orthogonalLoop=1;jettySize=auto;html=1;exitX=1;exitY=0.5;exitDx=0;exitDy=0;exitPerimeter=0;entryX=0;entryY=0.5;entryDx=0;entryDy=0;" edge="1" parent="1" source="Gj7sBWzn-W7E-TxNVWnS-42" target="Gj7sBWzn-W7E-TxNVWnS-39">
          <mxGeometry relative="1" as="geometry" />
        </mxCell>
        <mxCell id="Gj7sBWzn-W7E-TxNVWnS-42" value="" style="points=[[0.145,0.145,0],[0.5,0,0],[0.855,0.145,0],[1,0.5,0],[0.855,0.855,0],[0.5,1,0],[0.145,0.855,0],[0,0.5,0]];shape=mxgraph.bpmn.event;html=1;verticalLabelPosition=bottom;labelBackgroundColor=#ffffff;verticalAlign=top;align=center;perimeter=ellipsePerimeter;outlineConnect=0;aspect=fixed;outline=throwing;symbol=message;" vertex="1" parent="1">
          <mxGeometry x="785" y="-702.5" width="52" height="52" as="geometry" />
        </mxCell>
        <mxCell id="Gj7sBWzn-W7E-TxNVWnS-43" value="Сообщение об отклонении" style="text;html=1;align=center;verticalAlign=middle;whiteSpace=wrap;rounded=0;" vertex="1" parent="1">
          <mxGeometry x="783" y="-740" width="60" height="30" as="geometry" />
        </mxCell>
        <mxCell id="Gj7sBWzn-W7E-TxNVWnS-44" style="edgeStyle=orthogonalEdgeStyle;rounded=0;orthogonalLoop=1;jettySize=auto;html=1;exitX=0.5;exitY=0;exitDx=0;exitDy=0;entryX=0.5;entryY=1;entryDx=0;entryDy=0;entryPerimeter=0;" edge="1" parent="1" source="Gj7sBWzn-W7E-TxNVWnS-33" target="Gj7sBWzn-W7E-TxNVWnS-42">
          <mxGeometry relative="1" as="geometry" />
        </mxCell>
        <mxCell id="Gj7sBWzn-W7E-TxNVWnS-46" value="да" style="text;html=1;align=center;verticalAlign=middle;whiteSpace=wrap;rounded=0;" vertex="1" parent="1">
          <mxGeometry x="837" y="-479.2" width="60" height="30" as="geometry" />
        </mxCell>
        <mxCell id="Gj7sBWzn-W7E-TxNVWnS-47" value="нет" style="text;html=1;align=center;verticalAlign=middle;whiteSpace=wrap;rounded=0;" vertex="1" parent="1">
          <mxGeometry x="758" y="-486.87" width="60" height="30" as="geometry" />
        </mxCell>
        <mxCell id="Gj7sBWzn-W7E-TxNVWnS-52" style="edgeStyle=orthogonalEdgeStyle;rounded=0;orthogonalLoop=1;jettySize=auto;html=1;exitX=1;exitY=0.5;exitDx=0;exitDy=0;" edge="1" parent="1" source="Gj7sBWzn-W7E-TxNVWnS-48" target="Gj7sBWzn-W7E-TxNVWnS-53">
          <mxGeometry relative="1" as="geometry">
            <mxPoint x="1020" y="-421.9411764705883" as="targetPoint" />
          </mxGeometry>
        </mxCell>
        <mxCell id="Gj7sBWzn-W7E-TxNVWnS-48" value="первичное бронирование квеста" style="rounded=1;whiteSpace=wrap;html=1;" vertex="1" parent="1">
          <mxGeometry x="879" y="-452.49" width="120" height="60" as="geometry" />
        </mxCell>
        <mxCell id="Gj7sBWzn-W7E-TxNVWnS-54" style="edgeStyle=orthogonalEdgeStyle;rounded=0;orthogonalLoop=1;jettySize=auto;html=1;exitX=1;exitY=0.5;exitDx=0;exitDy=0;" edge="1" parent="1" source="Gj7sBWzn-W7E-TxNVWnS-53" target="Gj7sBWzn-W7E-TxNVWnS-55">
          <mxGeometry relative="1" as="geometry">
            <mxPoint x="1160" y="-421.9411764705883" as="targetPoint" />
          </mxGeometry>
        </mxCell>
        <mxCell id="Gj7sBWzn-W7E-TxNVWnS-53" value="Формирование рассписания" style="rounded=1;whiteSpace=wrap;html=1;" vertex="1" parent="1">
          <mxGeometry x="1020" y="-452.4911764705883" width="120" height="60" as="geometry" />
        </mxCell>
        <mxCell id="Gj7sBWzn-W7E-TxNVWnS-55" value="" style="points=[[0.145,0.145,0],[0.5,0,0],[0.855,0.145,0],[1,0.5,0],[0.855,0.855,0],[0.5,1,0],[0.145,0.855,0],[0,0.5,0]];shape=mxgraph.bpmn.event;html=1;verticalLabelPosition=bottom;labelBackgroundColor=#ffffff;verticalAlign=top;align=center;perimeter=ellipsePerimeter;outlineConnect=0;aspect=fixed;outline=standard;symbol=timer;" vertex="1" parent="1">
          <mxGeometry x="1170" y="-447.4911764705883" width="50" height="50" as="geometry" />
        </mxCell>
        <mxCell id="Gj7sBWzn-W7E-TxNVWnS-56" value="Ожидание ответа актера" style="text;html=1;align=center;verticalAlign=middle;whiteSpace=wrap;rounded=0;" vertex="1" parent="1">
          <mxGeometry x="1165" y="-486.87" width="60" height="30" as="geometry" />
        </mxCell>
        <mxCell id="Gj7sBWzn-W7E-TxNVWnS-57" value="" style="endArrow=classic;html=1;rounded=0;exitX=0.5;exitY=1;exitDx=0;exitDy=0;exitPerimeter=0;dashed=1;" edge="1" parent="1" source="Gj7sBWzn-W7E-TxNVWnS-55" target="Gj7sBWzn-W7E-TxNVWnS-58">
          <mxGeometry width="50" height="50" relative="1" as="geometry">
            <mxPoint x="1390" y="-330" as="sourcePoint" />
            <mxPoint x="1195" y="-130" as="targetPoint" />
          </mxGeometry>
        </mxCell>
        <mxCell id="Gj7sBWzn-W7E-TxNVWnS-58" value="" style="points=[[0.145,0.145,0],[0.5,0,0],[0.855,0.145,0],[1,0.5,0],[0.855,0.855,0],[0.5,1,0],[0.145,0.855,0],[0,0.5,0]];shape=mxgraph.bpmn.event;html=1;verticalLabelPosition=bottom;labelBackgroundColor=#ffffff;verticalAlign=top;align=center;perimeter=ellipsePerimeter;outlineConnect=0;aspect=fixed;outline=catching;symbol=message;" vertex="1" parent="1">
          <mxGeometry x="1170" y="-155" width="50" height="50" as="geometry" />
        </mxCell>
        <mxCell id="Gj7sBWzn-W7E-TxNVWnS-69" style="edgeStyle=orthogonalEdgeStyle;rounded=0;orthogonalLoop=1;jettySize=auto;html=1;exitX=1;exitY=0.5;exitDx=0;exitDy=0;exitPerimeter=0;" edge="1" parent="1" source="Gj7sBWzn-W7E-TxNVWnS-66">
          <mxGeometry relative="1" as="geometry">
            <mxPoint x="1340" y="-130" as="targetPoint" />
          </mxGeometry>
        </mxCell>
        <mxCell id="Gj7sBWzn-W7E-TxNVWnS-71" style="edgeStyle=orthogonalEdgeStyle;rounded=0;orthogonalLoop=1;jettySize=auto;html=1;exitX=0.5;exitY=0;exitDx=0;exitDy=0;exitPerimeter=0;" edge="1" parent="1" source="Gj7sBWzn-W7E-TxNVWnS-66" target="Gj7sBWzn-W7E-TxNVWnS-72">
          <mxGeometry relative="1" as="geometry">
            <mxPoint x="1265.7058823529414" y="-400.0000000000002" as="targetPoint" />
          </mxGeometry>
        </mxCell>
        <mxCell id="Gj7sBWzn-W7E-TxNVWnS-66" value="" style="points=[[0.25,0.25,0],[0.5,0,0],[0.75,0.25,0],[1,0.5,0],[0.75,0.75,0],[0.5,1,0],[0.25,0.75,0],[0,0.5,0]];shape=mxgraph.bpmn.gateway2;html=1;verticalLabelPosition=bottom;labelBackgroundColor=#ffffff;verticalAlign=top;align=center;perimeter=rhombusPerimeter;outlineConnect=0;outline=none;symbol=none;gwType=exclusive;" vertex="1" parent="1">
          <mxGeometry x="1241" y="-155" width="50" height="50" as="geometry" />
        </mxCell>
        <mxCell id="Gj7sBWzn-W7E-TxNVWnS-67" style="edgeStyle=orthogonalEdgeStyle;rounded=0;orthogonalLoop=1;jettySize=auto;html=1;exitX=1;exitY=0.5;exitDx=0;exitDy=0;exitPerimeter=0;entryX=0;entryY=0.5;entryDx=0;entryDy=0;entryPerimeter=0;" edge="1" parent="1" source="Gj7sBWzn-W7E-TxNVWnS-58" target="Gj7sBWzn-W7E-TxNVWnS-66">
          <mxGeometry relative="1" as="geometry" />
        </mxCell>
        <mxCell id="Gj7sBWzn-W7E-TxNVWnS-68" value="Может ли актер провести игру" style="text;html=1;align=center;verticalAlign=middle;whiteSpace=wrap;rounded=0;" vertex="1" parent="1">
          <mxGeometry x="1236" y="-89.37" width="60" height="30" as="geometry" />
        </mxCell>
        <mxCell id="Gj7sBWzn-W7E-TxNVWnS-70" value="нет" style="text;html=1;align=center;verticalAlign=middle;whiteSpace=wrap;rounded=0;" vertex="1" parent="1">
          <mxGeometry x="1220" y="-185" width="60" height="30" as="geometry" />
        </mxCell>
        <mxCell id="Gj7sBWzn-W7E-TxNVWnS-74" style="edgeStyle=orthogonalEdgeStyle;rounded=0;orthogonalLoop=1;jettySize=auto;html=1;exitX=0.5;exitY=0;exitDx=0;exitDy=0;exitPerimeter=0;" edge="1" parent="1" source="Gj7sBWzn-W7E-TxNVWnS-72">
          <mxGeometry relative="1" as="geometry">
            <mxPoint x="1265.7058823529414" y="-640.0000000000002" as="targetPoint" />
          </mxGeometry>
        </mxCell>
        <mxCell id="Gj7sBWzn-W7E-TxNVWnS-72" value="" style="points=[[0.145,0.145,0],[0.5,0,0],[0.855,0.145,0],[1,0.5,0],[0.855,0.855,0],[0.5,1,0],[0.145,0.855,0],[0,0.5,0]];shape=mxgraph.bpmn.event;html=1;verticalLabelPosition=bottom;labelBackgroundColor=#ffffff;verticalAlign=top;align=center;perimeter=ellipsePerimeter;outlineConnect=0;aspect=fixed;outline=throwing;symbol=message;" vertex="1" parent="1">
          <mxGeometry x="1240.9958823529414" y="-449.2000000000002" width="50" height="50" as="geometry" />
        </mxCell>
        <mxCell id="Gj7sBWzn-W7E-TxNVWnS-73" value="Сообщение об отсутствии актера" style="text;html=1;align=center;verticalAlign=middle;whiteSpace=wrap;rounded=0;" vertex="1" parent="1">
          <mxGeometry x="1280" y="-479.2" width="60" height="30" as="geometry" />
        </mxCell>
        <mxCell id="Gj7sBWzn-W7E-TxNVWnS-75" value="" style="ellipse;whiteSpace=wrap;html=1;aspect=fixed;strokeWidth=4;" vertex="1" parent="1">
          <mxGeometry x="1334" y="-691.5" width="50" height="50" as="geometry" />
        </mxCell>
        <mxCell id="Gj7sBWzn-W7E-TxNVWnS-76" value="Отклонение&amp;nbsp;заказа" style="text;html=1;align=center;verticalAlign=middle;whiteSpace=wrap;rounded=0;" vertex="1" parent="1">
          <mxGeometry x="1332" y="-729" width="60" height="30" as="geometry" />
        </mxCell>
        <mxCell id="Gj7sBWzn-W7E-TxNVWnS-77" style="edgeStyle=orthogonalEdgeStyle;rounded=0;orthogonalLoop=1;jettySize=auto;html=1;exitX=1;exitY=0.5;exitDx=0;exitDy=0;exitPerimeter=0;entryX=0;entryY=0.5;entryDx=0;entryDy=0;" edge="1" parent="1" source="Gj7sBWzn-W7E-TxNVWnS-78" target="Gj7sBWzn-W7E-TxNVWnS-75">
          <mxGeometry relative="1" as="geometry" />
        </mxCell>
        <mxCell id="Gj7sBWzn-W7E-TxNVWnS-78" value="" style="points=[[0.145,0.145,0],[0.5,0,0],[0.855,0.145,0],[1,0.5,0],[0.855,0.855,0],[0.5,1,0],[0.145,0.855,0],[0,0.5,0]];shape=mxgraph.bpmn.event;html=1;verticalLabelPosition=bottom;labelBackgroundColor=#ffffff;verticalAlign=top;align=center;perimeter=ellipsePerimeter;outlineConnect=0;aspect=fixed;outline=throwing;symbol=message;" vertex="1" parent="1">
          <mxGeometry x="1240" y="-691.5" width="52" height="52" as="geometry" />
        </mxCell>
        <mxCell id="Gj7sBWzn-W7E-TxNVWnS-79" value="Сообщение об отклонении" style="text;html=1;align=center;verticalAlign=middle;whiteSpace=wrap;rounded=0;" vertex="1" parent="1">
          <mxGeometry x="1238" y="-729" width="60" height="30" as="geometry" />
        </mxCell>
        <mxCell id="Gj7sBWzn-W7E-TxNVWnS-80" value="да" style="text;html=1;align=center;verticalAlign=middle;whiteSpace=wrap;rounded=0;" vertex="1" parent="1">
          <mxGeometry x="1280" y="-160" width="60" height="30" as="geometry" />
        </mxCell>
        <mxCell id="Gj7sBWzn-W7E-TxNVWnS-84" style="edgeStyle=orthogonalEdgeStyle;rounded=0;orthogonalLoop=1;jettySize=auto;html=1;exitX=0.5;exitY=0;exitDx=0;exitDy=0;exitPerimeter=0;dashed=1;" edge="1" parent="1" source="Gj7sBWzn-W7E-TxNVWnS-82">
          <mxGeometry relative="1" as="geometry">
            <mxPoint x="1435" y="-397.49000000000024" as="targetPoint" />
          </mxGeometry>
        </mxCell>
        <mxCell id="Gj7sBWzn-W7E-TxNVWnS-125" style="edgeStyle=orthogonalEdgeStyle;rounded=0;orthogonalLoop=1;jettySize=auto;html=1;exitX=1;exitY=0.5;exitDx=0;exitDy=0;exitPerimeter=0;entryX=0;entryY=0.5;entryDx=0;entryDy=0;" edge="1" parent="1" source="Gj7sBWzn-W7E-TxNVWnS-82" target="Gj7sBWzn-W7E-TxNVWnS-124">
          <mxGeometry relative="1" as="geometry" />
        </mxCell>
        <mxCell id="Gj7sBWzn-W7E-TxNVWnS-82" value="" style="points=[[0.145,0.145,0],[0.5,0,0],[0.855,0.145,0],[1,0.5,0],[0.855,0.855,0],[0.5,1,0],[0.145,0.855,0],[0,0.5,0]];shape=mxgraph.bpmn.event;html=1;verticalLabelPosition=bottom;labelBackgroundColor=#ffffff;verticalAlign=top;align=center;perimeter=ellipsePerimeter;outlineConnect=0;aspect=fixed;outline=standard;symbol=timer;" vertex="1" parent="1">
          <mxGeometry x="1340" y="-155" width="50" height="50" as="geometry" />
        </mxCell>
        <mxCell id="Gj7sBWzn-W7E-TxNVWnS-83" value="Ожидание получения оплаты за игру" style="text;html=1;align=center;verticalAlign=middle;whiteSpace=wrap;rounded=0;" vertex="1" parent="1">
          <mxGeometry x="1335" y="-89.37" width="60" height="30" as="geometry" />
        </mxCell>
        <mxCell id="Gj7sBWzn-W7E-TxNVWnS-90" style="edgeStyle=orthogonalEdgeStyle;rounded=0;orthogonalLoop=1;jettySize=auto;html=1;exitX=1;exitY=0.5;exitDx=0;exitDy=0;exitPerimeter=0;" edge="1" parent="1" source="Gj7sBWzn-W7E-TxNVWnS-87" target="Gj7sBWzn-W7E-TxNVWnS-91">
          <mxGeometry relative="1" as="geometry">
            <mxPoint x="1480" y="-421.9411764705883" as="targetPoint" />
          </mxGeometry>
        </mxCell>
        <mxCell id="Gj7sBWzn-W7E-TxNVWnS-87" value="" style="points=[[0.145,0.145,0],[0.5,0,0],[0.855,0.145,0],[1,0.5,0],[0.855,0.855,0],[0.5,1,0],[0.145,0.855,0],[0,0.5,0]];shape=mxgraph.bpmn.event;html=1;verticalLabelPosition=bottom;labelBackgroundColor=#ffffff;verticalAlign=top;align=center;perimeter=ellipsePerimeter;outlineConnect=0;aspect=fixed;outline=catching;symbol=message;" vertex="1" parent="1">
          <mxGeometry x="1410" y="-447.49" width="50" height="50" as="geometry" />
        </mxCell>
        <mxCell id="Gj7sBWzn-W7E-TxNVWnS-88" value="Подтверждение наличия актера" style="text;html=1;align=center;verticalAlign=middle;whiteSpace=wrap;rounded=0;" vertex="1" parent="1">
          <mxGeometry x="1405" y="-482.49" width="60" height="30" as="geometry" />
        </mxCell>
        <mxCell id="Gj7sBWzn-W7E-TxNVWnS-93" style="edgeStyle=orthogonalEdgeStyle;rounded=0;orthogonalLoop=1;jettySize=auto;html=1;exitX=1;exitY=0.5;exitDx=0;exitDy=0;entryX=0;entryY=0.5;entryDx=0;entryDy=0;entryPerimeter=0;" edge="1" parent="1" source="Gj7sBWzn-W7E-TxNVWnS-91">
          <mxGeometry relative="1" as="geometry">
            <mxPoint x="1660" y="-422.49" as="targetPoint" />
          </mxGeometry>
        </mxCell>
        <mxCell id="Gj7sBWzn-W7E-TxNVWnS-91" value="Расстановка актеров на квест" style="rounded=1;whiteSpace=wrap;html=1;" vertex="1" parent="1">
          <mxGeometry x="1500" y="-452.4911764705883" width="120" height="60" as="geometry" />
        </mxCell>
        <mxCell id="Gj7sBWzn-W7E-TxNVWnS-103" style="edgeStyle=orthogonalEdgeStyle;rounded=0;orthogonalLoop=1;jettySize=auto;html=1;exitX=0.5;exitY=0;exitDx=0;exitDy=0;exitPerimeter=0;dashed=1;" edge="1" parent="1" source="Gj7sBWzn-W7E-TxNVWnS-101" target="Gj7sBWzn-W7E-TxNVWnS-104">
          <mxGeometry relative="1" as="geometry">
            <mxPoint x="1684.5294117647063" y="-650.0000000000002" as="targetPoint" />
          </mxGeometry>
        </mxCell>
        <mxCell id="Gj7sBWzn-W7E-TxNVWnS-101" value="" style="points=[[0.145,0.145,0],[0.5,0,0],[0.855,0.145,0],[1,0.5,0],[0.855,0.855,0],[0.5,1,0],[0.145,0.855,0],[0,0.5,0]];shape=mxgraph.bpmn.event;html=1;verticalLabelPosition=bottom;labelBackgroundColor=#ffffff;verticalAlign=top;align=center;perimeter=ellipsePerimeter;outlineConnect=0;aspect=fixed;outline=standard;symbol=timer;" vertex="1" parent="1">
          <mxGeometry x="1660" y="-447.49" width="50" height="50" as="geometry" />
        </mxCell>
        <mxCell id="Gj7sBWzn-W7E-TxNVWnS-102" value="Ожидание получения оплаты" style="text;html=1;align=center;verticalAlign=middle;whiteSpace=wrap;rounded=0;" vertex="1" parent="1">
          <mxGeometry x="1654" y="-388.12" width="60" height="30" as="geometry" />
        </mxCell>
        <mxCell id="Gj7sBWzn-W7E-TxNVWnS-107" style="edgeStyle=orthogonalEdgeStyle;rounded=0;orthogonalLoop=1;jettySize=auto;html=1;exitX=1;exitY=0.5;exitDx=0;exitDy=0;exitPerimeter=0;" edge="1" parent="1" source="Gj7sBWzn-W7E-TxNVWnS-104" target="Gj7sBWzn-W7E-TxNVWnS-108">
          <mxGeometry relative="1" as="geometry">
            <mxPoint x="1740" y="-666.6470588235293" as="targetPoint" />
          </mxGeometry>
        </mxCell>
        <mxCell id="Gj7sBWzn-W7E-TxNVWnS-104" value="" style="points=[[0.145,0.145,0],[0.5,0,0],[0.855,0.145,0],[1,0.5,0],[0.855,0.855,0],[0.5,1,0],[0.145,0.855,0],[0,0.5,0]];shape=mxgraph.bpmn.event;html=1;verticalLabelPosition=bottom;labelBackgroundColor=#ffffff;verticalAlign=top;align=center;perimeter=ellipsePerimeter;outlineConnect=0;aspect=fixed;outline=catching;symbol=message;" vertex="1" parent="1">
          <mxGeometry x="1659.9994117647063" y="-691.5000000000002" width="50" height="50" as="geometry" />
        </mxCell>
        <mxCell id="Gj7sBWzn-W7E-TxNVWnS-106" value="Сообщение об оплате" style="text;html=1;align=center;verticalAlign=middle;whiteSpace=wrap;rounded=0;" vertex="1" parent="1">
          <mxGeometry x="1655" y="-727.5" width="60" height="30" as="geometry" />
        </mxCell>
        <mxCell id="Gj7sBWzn-W7E-TxNVWnS-109" style="edgeStyle=orthogonalEdgeStyle;rounded=0;orthogonalLoop=1;jettySize=auto;html=1;exitX=1;exitY=0.5;exitDx=0;exitDy=0;" edge="1" parent="1" source="Gj7sBWzn-W7E-TxNVWnS-108" target="Gj7sBWzn-W7E-TxNVWnS-110">
          <mxGeometry relative="1" as="geometry">
            <mxPoint x="1870" y="-667.8235294117646" as="targetPoint" />
          </mxGeometry>
        </mxCell>
        <mxCell id="Gj7sBWzn-W7E-TxNVWnS-108" value="Оплата квеста" style="rounded=1;whiteSpace=wrap;html=1;" vertex="1" parent="1">
          <mxGeometry x="1730" y="-697.4970588235293" width="120" height="60" as="geometry" />
        </mxCell>
        <mxCell id="Gj7sBWzn-W7E-TxNVWnS-111" style="edgeStyle=orthogonalEdgeStyle;rounded=0;orthogonalLoop=1;jettySize=auto;html=1;exitX=1;exitY=0.5;exitDx=0;exitDy=0;exitPerimeter=0;" edge="1" parent="1" source="Gj7sBWzn-W7E-TxNVWnS-110" target="Gj7sBWzn-W7E-TxNVWnS-112">
          <mxGeometry relative="1" as="geometry">
            <mxPoint x="1950" y="-667.8235294117646" as="targetPoint" />
          </mxGeometry>
        </mxCell>
        <mxCell id="Gj7sBWzn-W7E-TxNVWnS-116" style="edgeStyle=orthogonalEdgeStyle;rounded=0;orthogonalLoop=1;jettySize=auto;html=1;exitX=0.5;exitY=1;exitDx=0;exitDy=0;exitPerimeter=0;dashed=1;" edge="1" parent="1" source="Gj7sBWzn-W7E-TxNVWnS-110" target="Gj7sBWzn-W7E-TxNVWnS-118">
          <mxGeometry relative="1" as="geometry">
            <mxPoint x="1904.5294117647063" y="-450.0000000000002" as="targetPoint" />
          </mxGeometry>
        </mxCell>
        <mxCell id="Gj7sBWzn-W7E-TxNVWnS-110" value="" style="points=[[0.25,0.25,0],[0.5,0,0],[0.75,0.25,0],[1,0.5,0],[0.75,0.75,0],[0.5,1,0],[0.25,0.75,0],[0,0.5,0]];shape=mxgraph.bpmn.gateway2;html=1;verticalLabelPosition=bottom;labelBackgroundColor=#ffffff;verticalAlign=top;align=center;perimeter=rhombusPerimeter;outlineConnect=0;outline=none;symbol=none;gwType=exclusive;" vertex="1" parent="1">
          <mxGeometry x="1880" y="-692.5035294117646" width="50" height="50" as="geometry" />
        </mxCell>
        <mxCell id="Gj7sBWzn-W7E-TxNVWnS-112" value="" style="points=[[0.145,0.145,0],[0.5,0,0],[0.855,0.145,0],[1,0.5,0],[0.855,0.855,0],[0.5,1,0],[0.145,0.855,0],[0,0.5,0]];shape=mxgraph.bpmn.event;html=1;verticalLabelPosition=bottom;labelBackgroundColor=#ffffff;verticalAlign=top;align=center;perimeter=ellipsePerimeter;outlineConnect=0;aspect=fixed;outline=end;symbol=terminate2;" vertex="1" parent="1">
          <mxGeometry x="1980" y="-692.5035294117646" width="50" height="50" as="geometry" />
        </mxCell>
        <mxCell id="Gj7sBWzn-W7E-TxNVWnS-113" value="Оплата прошла?" style="text;html=1;align=center;verticalAlign=middle;whiteSpace=wrap;rounded=0;" vertex="1" parent="1">
          <mxGeometry x="1880" y="-732.5" width="60" height="30" as="geometry" />
        </mxCell>
        <mxCell id="Gj7sBWzn-W7E-TxNVWnS-114" value="нет" style="text;html=1;align=center;verticalAlign=middle;whiteSpace=wrap;rounded=0;" vertex="1" parent="1">
          <mxGeometry x="1920" y="-697.5" width="60" height="30" as="geometry" />
        </mxCell>
        <mxCell id="Gj7sBWzn-W7E-TxNVWnS-115" value="Отмена бронирования" style="text;html=1;align=center;verticalAlign=middle;whiteSpace=wrap;rounded=0;" vertex="1" parent="1">
          <mxGeometry x="1980" y="-732.5" width="60" height="30" as="geometry" />
        </mxCell>
        <mxCell id="Gj7sBWzn-W7E-TxNVWnS-117" value="да" style="text;html=1;align=center;verticalAlign=middle;whiteSpace=wrap;rounded=0;" vertex="1" parent="1">
          <mxGeometry x="1900" y="-647.5" width="60" height="30" as="geometry" />
        </mxCell>
        <mxCell id="Gj7sBWzn-W7E-TxNVWnS-130" style="edgeStyle=orthogonalEdgeStyle;rounded=0;orthogonalLoop=1;jettySize=auto;html=1;exitX=1;exitY=0.5;exitDx=0;exitDy=0;exitPerimeter=0;" edge="1" parent="1" source="Gj7sBWzn-W7E-TxNVWnS-118" target="Gj7sBWzn-W7E-TxNVWnS-131">
          <mxGeometry relative="1" as="geometry">
            <mxPoint x="2010" y="-421.9411764705883" as="targetPoint" />
          </mxGeometry>
        </mxCell>
        <mxCell id="Gj7sBWzn-W7E-TxNVWnS-118" value="" style="points=[[0.145,0.145,0],[0.5,0,0],[0.855,0.145,0],[1,0.5,0],[0.855,0.855,0],[0.5,1,0],[0.145,0.855,0],[0,0.5,0]];shape=mxgraph.bpmn.event;html=1;verticalLabelPosition=bottom;labelBackgroundColor=#ffffff;verticalAlign=top;align=center;perimeter=ellipsePerimeter;outlineConnect=0;aspect=fixed;outline=catching;symbol=message;" vertex="1" parent="1">
          <mxGeometry x="1879.9994117647063" y="-447.49000000000024" width="50" height="50" as="geometry" />
        </mxCell>
        <mxCell id="Gj7sBWzn-W7E-TxNVWnS-119" value="сообщение об успешной оплате" style="text;html=1;align=center;verticalAlign=middle;whiteSpace=wrap;rounded=0;" vertex="1" parent="1">
          <mxGeometry x="1930" y="-470" width="60" height="30" as="geometry" />
        </mxCell>
        <mxCell id="Gj7sBWzn-W7E-TxNVWnS-120" style="edgeStyle=orthogonalEdgeStyle;rounded=0;orthogonalLoop=1;jettySize=auto;html=1;exitX=1;exitY=0.5;exitDx=0;exitDy=0;exitPerimeter=0;entryX=0;entryY=0.5;entryDx=0;entryDy=0;entryPerimeter=0;" edge="1" parent="1" source="Gj7sBWzn-W7E-TxNVWnS-26" target="Gj7sBWzn-W7E-TxNVWnS-104">
          <mxGeometry relative="1" as="geometry">
            <Array as="points">
              <mxPoint x="490" y="-673" />
              <mxPoint x="490" y="-770" />
              <mxPoint x="1630" y="-770" />
              <mxPoint x="1630" y="-667" />
            </Array>
          </mxGeometry>
        </mxCell>
        <mxCell id="Gj7sBWzn-W7E-TxNVWnS-121" style="edgeStyle=orthogonalEdgeStyle;rounded=0;orthogonalLoop=1;jettySize=auto;html=1;exitX=1;exitY=0.5;exitDx=0;exitDy=0;exitPerimeter=0;entryX=0;entryY=0.5;entryDx=0;entryDy=0;entryPerimeter=0;" edge="1" parent="1" source="Gj7sBWzn-W7E-TxNVWnS-55" target="Gj7sBWzn-W7E-TxNVWnS-87">
          <mxGeometry relative="1" as="geometry">
            <Array as="points">
              <mxPoint x="1230" y="-423" />
              <mxPoint x="1230" y="-510" />
              <mxPoint x="1390" y="-510" />
              <mxPoint x="1390" y="-423" />
            </Array>
          </mxGeometry>
        </mxCell>
        <mxCell id="Gj7sBWzn-W7E-TxNVWnS-122" style="edgeStyle=orthogonalEdgeStyle;rounded=0;orthogonalLoop=1;jettySize=auto;html=1;exitX=1;exitY=0.5;exitDx=0;exitDy=0;exitPerimeter=0;entryX=0;entryY=0.5;entryDx=0;entryDy=0;entryPerimeter=0;" edge="1" parent="1" source="Gj7sBWzn-W7E-TxNVWnS-101" target="Gj7sBWzn-W7E-TxNVWnS-118">
          <mxGeometry relative="1" as="geometry" />
        </mxCell>
        <mxCell id="Gj7sBWzn-W7E-TxNVWnS-127" style="edgeStyle=orthogonalEdgeStyle;rounded=0;orthogonalLoop=1;jettySize=auto;html=1;exitX=1;exitY=0.5;exitDx=0;exitDy=0;" edge="1" parent="1" source="Gj7sBWzn-W7E-TxNVWnS-124" target="Gj7sBWzn-W7E-TxNVWnS-128">
          <mxGeometry relative="1" as="geometry">
            <mxPoint x="2040" y="-130.17647058823513" as="targetPoint" />
          </mxGeometry>
        </mxCell>
        <mxCell id="Gj7sBWzn-W7E-TxNVWnS-124" value="Оплата за проведения игры" style="rounded=1;whiteSpace=wrap;html=1;" vertex="1" parent="1">
          <mxGeometry x="1890" y="-160" width="120" height="60" as="geometry" />
        </mxCell>
        <mxCell id="Gj7sBWzn-W7E-TxNVWnS-128" value="" style="points=[[0.145,0.145,0],[0.5,0,0],[0.855,0.145,0],[1,0.5,0],[0.855,0.855,0],[0.5,1,0],[0.145,0.855,0],[0,0.5,0]];shape=mxgraph.bpmn.event;html=1;verticalLabelPosition=bottom;labelBackgroundColor=#ffffff;verticalAlign=top;align=center;perimeter=ellipsePerimeter;outlineConnect=0;aspect=fixed;outline=end;symbol=terminate2;" vertex="1" parent="1">
          <mxGeometry x="2040" y="-154.99647058823513" width="50" height="50" as="geometry" />
        </mxCell>
        <mxCell id="Gj7sBWzn-W7E-TxNVWnS-129" value="Проведение игры" style="text;html=1;align=center;verticalAlign=middle;whiteSpace=wrap;rounded=0;" vertex="1" parent="1">
          <mxGeometry x="2038" y="-200" width="60" height="30" as="geometry" />
        </mxCell>
        <mxCell id="Gj7sBWzn-W7E-TxNVWnS-132" style="edgeStyle=orthogonalEdgeStyle;rounded=0;orthogonalLoop=1;jettySize=auto;html=1;exitX=0.5;exitY=1;exitDx=0;exitDy=0;entryX=0.5;entryY=0;entryDx=0;entryDy=0;" edge="1" parent="1" source="Gj7sBWzn-W7E-TxNVWnS-131" target="Gj7sBWzn-W7E-TxNVWnS-124">
          <mxGeometry relative="1" as="geometry" />
        </mxCell>
        <mxCell id="Gj7sBWzn-W7E-TxNVWnS-133" style="edgeStyle=orthogonalEdgeStyle;rounded=0;orthogonalLoop=1;jettySize=auto;html=1;exitX=1;exitY=0.5;exitDx=0;exitDy=0;" edge="1" parent="1" source="Gj7sBWzn-W7E-TxNVWnS-131" target="Gj7sBWzn-W7E-TxNVWnS-134">
          <mxGeometry relative="1" as="geometry">
            <mxPoint x="2150" y="-424.2941176470588" as="targetPoint" />
          </mxGeometry>
        </mxCell>
        <mxCell id="Gj7sBWzn-W7E-TxNVWnS-131" value="Распределение финансов" style="rounded=1;whiteSpace=wrap;html=1;" vertex="1" parent="1">
          <mxGeometry x="2000" y="-454.2011764705883" width="120" height="60" as="geometry" />
        </mxCell>
        <mxCell id="Gj7sBWzn-W7E-TxNVWnS-136" style="edgeStyle=orthogonalEdgeStyle;rounded=0;orthogonalLoop=1;jettySize=auto;html=1;exitX=0.5;exitY=0;exitDx=0;exitDy=0;exitPerimeter=0;entryX=0.5;entryY=1;entryDx=0;entryDy=0;entryPerimeter=0;" edge="1" parent="1" source="Gj7sBWzn-W7E-TxNVWnS-134" target="Gj7sBWzn-W7E-TxNVWnS-138">
          <mxGeometry relative="1" as="geometry">
            <mxPoint x="2175.1176470588234" y="-620.0000000000002" as="targetPoint" />
          </mxGeometry>
        </mxCell>
        <mxCell id="Gj7sBWzn-W7E-TxNVWnS-134" value="" style="points=[[0.145,0.145,0],[0.5,0,0],[0.855,0.145,0],[1,0.5,0],[0.855,0.855,0],[0.5,1,0],[0.145,0.855,0],[0,0.5,0]];shape=mxgraph.bpmn.event;html=1;verticalLabelPosition=bottom;labelBackgroundColor=#ffffff;verticalAlign=top;align=center;perimeter=ellipsePerimeter;outlineConnect=0;aspect=fixed;outline=throwing;symbol=message;" vertex="1" parent="1">
          <mxGeometry x="2150" y="-449.2041176470588" width="50" height="50" as="geometry" />
        </mxCell>
        <mxCell id="Gj7sBWzn-W7E-TxNVWnS-135" value="Сообщение об успешном бронировании" style="text;html=1;align=center;verticalAlign=middle;whiteSpace=wrap;rounded=0;" vertex="1" parent="1">
          <mxGeometry x="2145" y="-388.12" width="60" height="30" as="geometry" />
        </mxCell>
        <mxCell id="Gj7sBWzn-W7E-TxNVWnS-138" value="" style="points=[[0.145,0.145,0],[0.5,0,0],[0.855,0.145,0],[1,0.5,0],[0.855,0.855,0],[0.5,1,0],[0.145,0.855,0],[0,0.5,0]];shape=mxgraph.bpmn.event;html=1;verticalLabelPosition=bottom;labelBackgroundColor=#ffffff;verticalAlign=top;align=center;perimeter=ellipsePerimeter;outlineConnect=0;aspect=fixed;outline=end;symbol=terminate2;" vertex="1" parent="1">
          <mxGeometry x="2150" y="-697.5" width="50" height="50" as="geometry" />
        </mxCell>
        <mxCell id="Gj7sBWzn-W7E-TxNVWnS-139" value="бронирование квеста" style="text;html=1;align=center;verticalAlign=middle;whiteSpace=wrap;rounded=0;" vertex="1" parent="1">
          <mxGeometry x="2150" y="-732.5" width="60" height="30" as="geometry" />
        </mxCell>
      </root>
    </mxGraphModel>
  </diagram>
</mxfile>
